<svg xmlns="http://www.w3.org/2000/svg" viewBox="0 0 360.57 66.73"><defs><style>.cls-1{fill:lime;fill-rule:evenodd;}.cls-2{fill:#fff;}</style></defs><title>Asset 1</title><g id="Layer_2" data-name="Layer 2"><g id="Lag_1" data-name="Lag 1"><path class="cls-1" d="M48.38,42.73a24.19,24.19,0,1,1-24-24.39A24.18,24.18,0,0,1,48.38,42.73ZM27.91,31.37a3.78,3.78,0,1,1-5-3.55v-2H20.5V23.33h2.39V20.94h2.53v2.39h2.39v2.53H25.42v2A3.77,3.77,0,0,1,27.91,31.37Zm-2.25,0a1.53,1.53,0,1,0-1.53,1.52A1.53,1.53,0,0,0,25.66,31.37ZM35.71,56.85h-23v2.67h23Zm-.06-2.09h-23v0h0C9.74,52.27,5.41,47.13,5.63,42.6a5.57,5.57,0,0,1,4-5.28,6.5,6.5,0,0,1,5.49.82,4.85,4.85,0,0,1,2.55-1.76,5.69,5.69,0,0,1,6.4,1.82,5.87,5.87,0,0,1,6.38-1.87,5,5,0,0,1,2.67,1.87,6.52,6.52,0,0,1,5.61-.81,5.56,5.56,0,0,1,4,5.33C42.88,47.25,38.49,52.31,35.65,54.76ZM20.41,52.1c-2.74-2.63-6.16-6.57-6.16-10.23,0-.27,0-.55,0-.81-1.82-1.33-2.73-1.38-3.89-1.07a2.59,2.59,0,0,0-2,2.77C8.33,45,9.74,48.1,13.57,52.1Zm11-10.23c0-1.8-.78-3.24-2.68-3.24a3.18,3.18,0,0,0-3.27,3.06s0,.05,0,.08a2.73,2.73,0,0,0,2,2.77,18.64,18.64,0,0,1-3.29,3.53c-.1.09,0,.09-.12,0a16.91,16.91,0,0,1-3.08-3.53,2.86,2.86,0,0,0,2-2.77h0a3,3,0,0,0-.27-1.24h0l-.11-.21,0-.07-.09-.14-.15-.2a3,3,0,0,0-2.12-1.14h-.11a3.72,3.72,0,0,0-1.4.2A2.55,2.55,0,0,0,17,41a2.92,2.92,0,0,0-.09.73,2.42,2.42,0,0,0,0,.47c.23,2.39,2.66,5.64,7.24,9.68C29,47.67,31.43,44.29,31.43,41.87Zm8.52,1A2.61,2.61,0,0,0,38,40c-1.17-.32-2.08-.28-3.94,1.05,0,.26,0,.52,0,.78,0,3.66-3.42,7.6-6.15,10.23h6.74C38.54,48.16,40,45.1,40,42.85Z"/><path class="cls-2" d="M79.34,58.64a2.63,2.63,0,0,0,2.92-2.52V54.26c0-1.55-.83-2.27-3.09-3.3l-6.85-3.15c-4.41-2-7-3.19-7-7.37V36.37a6.77,6.77,0,0,1,7-6.6H86.24a.84.84,0,0,1,.88.82v4a.84.84,0,0,1-.88.82h-11c-1.66,0-2.93,1-2.93,2.53v1.55c0,1.65,1.29,2.06,3.23,2.94l6.36,3.14c5,2.27,7.34,3.82,7.34,8.05v4.23c0,3.66-3.5,6.6-7.42,6.6H65.64a.84.84,0,0,1-.88-.83V59.47a.84.84,0,0,1,.88-.83Z"/><path class="cls-2" d="M103.84,58.53a.82.82,0,0,0,.82.87h3.26a.86.86,0,0,1,.86.87v3.31a.86.86,0,0,1-.86.87H94a.86.86,0,0,1-.87-.87V60.26A.86.86,0,0,1,94,59.4h2.6a.81.81,0,0,0,.81-.87V43.94a.8.8,0,0,0-.81-.87H94.9A.86.86,0,0,1,94,42.2V38.89A.86.86,0,0,1,94.9,38H103a.86.86,0,0,1,.87.87Zm-3.57-31.09a3.91,3.91,0,1,1-3.86,3.91A4,4,0,0,1,100.27,27.44Z"/><path class="cls-2" d="M187.61,52.41a.82.82,0,0,1-.82.87H172.36v.81c0,3.26,2.76,5.27,6.67,5.27h6.73a.86.86,0,0,1,.87.86v3.37a.86.86,0,0,1-.87.87h-7.87c-6.84,0-11.94-3.59-11.93-10.64V47c0-5.37,2.49-9.55,11.17-9.55,7.44,0,10.48,3.75,10.48,8.3ZM172.36,48c0,.49.16.76.7.76h7.49a.82.82,0,0,0,.82-.87V46.66c0-2.44-1-4.13-4.45-4.13-3.8,0-4.56,1.85-4.56,4.23Z"/><path class="cls-2" d="M195.92,44a.81.81,0,0,0-.81-.87h-1.74a.86.86,0,0,1-.86-.87V38.9a.86.86,0,0,1,.86-.87h13.24a6.74,6.74,0,0,1,6.89,6.79v2.06a.86.86,0,0,1-.87.87h-4.18a.82.82,0,0,1-.81-.87v-1.3c0-1.63-1.24-2.5-2.87-2.5h-1.63a.81.81,0,0,0-.81.87V58.54a.81.81,0,0,0,.81.87h5a.86.86,0,0,1,.87.87v3.31a.86.86,0,0,1-.87.87H193.37a.86.86,0,0,1-.87-.87V60.28a.86.86,0,0,1,.87-.87h1.74a.81.81,0,0,0,.81-.87Z"/><path class="cls-2" d="M250.62,44a.82.82,0,0,0-.82-.87h-1.73a.86.86,0,0,1-.87-.87V38.91a.86.86,0,0,1,.87-.87h13.24a6.73,6.73,0,0,1,6.88,6.78v2.07a.85.85,0,0,1-.86.86h-4.18a.81.81,0,0,1-.81-.86V45.58c0-1.62-1.25-2.49-2.88-2.49h-1.63A.81.81,0,0,0,257,44V58.55a.81.81,0,0,0,.81.87h5a.86.86,0,0,1,.86.87V63.6a.86.86,0,0,1-.87.87H248.06a.86.86,0,0,1-.86-.87V60.28a.85.85,0,0,1,.86-.86h1.74a.81.81,0,0,0,.81-.87Z"/><path class="cls-2" d="M285.2,45.8c0-2-2.12-3.25-4.89-3.25s-7.49.7-7.87.7-.54-.16-.54-.59V39c0-.33,0-.76.6-.87a67.51,67.51,0,0,1,7.65-.65c6.4,0,11.45,1.9,11.45,8.36V58a1.23,1.23,0,0,0,1.24,1.4h.22a.86.86,0,0,1,.87.87V63.6a.86.86,0,0,1-.87.87h-2c-2.87,0-4.23-.87-4.82-2.93-.11-.33-.27-.43-.44-.43a.5.5,0,0,0-.49.38c-.81,2.06-2.17,3-5.59,3h-2.22a6.85,6.85,0,0,1-7.16-6.84V56.49c0-4,3-6.29,6.89-7.11l7.92-1.68Zm-4.13,13.62c3.69,0,4.12-2.06,4.12-5.48V52.15l-6.08,1.52a2.94,2.94,0,0,0-2.33,2.88v.54c0,1.46,1.25,2.33,2.88,2.33Z"/><path class="cls-2" d="M323.89,35.28A3.91,3.91,0,1,0,320,31.37,4,4,0,0,0,323.89,35.28Z"/><path class="cls-2" d="M331.53,59.43h-3.25a.82.82,0,0,1-.82-.87V38.92a.86.86,0,0,0-.87-.87H307.94a.87.87,0,0,1-.87-.87v-.49a3.63,3.63,0,0,1,3.64-3.63h1.79a.87.87,0,0,0,.87-.87V28.82a.82.82,0,0,0-.82-.81h-3.14c-5.37,0-8.74,2.12-8.74,7.32v1.9a.82.82,0,0,1-.81.82h-2.71a.87.87,0,0,0-.87.87v3.31a.86.86,0,0,0,.86.86h2.66a.87.87,0,0,1,.87.87V63.6a.87.87,0,0,0,.87.87h4.66a.87.87,0,0,0,.87-.87V43.91a.82.82,0,0,1,.82-.82h12.36a.81.81,0,0,1,.81.88V58.56a.81.81,0,0,1-.81.87h-2.61a.85.85,0,0,0-.86.86V63.6a.86.86,0,0,0,.86.87h13.89a.86.86,0,0,0,.87-.87V60.3A.86.86,0,0,0,331.53,59.43Z"/><path class="cls-2" d="M127.19,51.1a1.37,1.37,0,0,1-.38-.81,1.42,1.42,0,0,1,.38-.82l7.87-9.82a1.57,1.57,0,0,0,.38-.92c0-.43-.38-.7-1-.7h-3.91c-1.3,0-1.68.32-2.6,1.51L122,47c-.11.14-.21.28-.31.43h-2.24V33.38a.86.86,0,0,0-.87-.87H113.9a.82.82,0,0,0-.82.87v30.2a.81.81,0,0,0,.81.87h4.72a.86.86,0,0,0,.87-.87V53.1h2a9.29,9.29,0,0,0,1.18,1.69l6.89,8.79a2,2,0,0,0,1.95.87H136c.59,0,1-.27,1-.71a1.59,1.59,0,0,0-.38-.92Z"/><path class="cls-2" d="M154.33,51.11a1.42,1.42,0,0,1-.38-.82,1.37,1.37,0,0,1,.38-.81l7.87-9.83a1.57,1.57,0,0,0,.38-.91c0-.44-.38-.71-1-.71h-3.9c-1.31,0-1.69.33-2.61,1.52L149.18,47a3.77,3.77,0,0,0-.31.42h-2.24V33.38a.86.86,0,0,0-.87-.87H141a.81.81,0,0,0-.81.87v30.2a.82.82,0,0,0,.82.87h4.72a.86.86,0,0,0,.87-.87V53.1h2a9.82,9.82,0,0,0,1.18,1.69l6.89,8.79a2,2,0,0,0,2,.87h4.5c.6,0,1-.27,1-.7a1.59,1.59,0,0,0-.38-.92Z"/><path class="cls-2" d="M360.19,62.85l-9.38-11.72a1.06,1.06,0,0,1,0-1.63l7.87-9.82a1.57,1.57,0,0,0,.38-.92c0-.44-.38-.71-1-.71h-3.91c-1.3,0-1.68.33-2.6,1.52l-5.92,7.49a4.25,4.25,0,0,0-.31.43H343.1V33.12a.86.86,0,0,0-.87-.86h-4.72a.81.81,0,0,0-.81.86V63.61a.81.81,0,0,0,.81.87h4.72a.86.86,0,0,0,.87-.87V53.13h2a9.29,9.29,0,0,0,1.18,1.69l6.89,8.79a2,2,0,0,0,1.95.87h4.5c.6,0,1-.27,1-.71A1.59,1.59,0,0,0,360.19,62.85Z"/><path class="cls-2" d="M230,36a.82.82,0,0,0-.82-.88h-8.36a.87.87,0,0,1-.88-.88V30.5a.87.87,0,0,1,.88-.88H245.9a.87.87,0,0,1,.88.88v3.77a.87.87,0,0,1-.88.88h-8.35a.82.82,0,0,0-.83.88v27.6a.86.86,0,0,1-.87.88h-5a.82.82,0,0,1-.82-.88Z"/><path class="cls-2" d="M90.65,10.53c0-1-1.08-1.67-2.49-1.67s-3.83.37-4,.37-.28-.09-.28-.31V7.07c0-.17,0-.39.31-.45a32.75,32.75,0,0,1,3.9-.33c3.27,0,5.85,1,5.85,4.26v6.21c0,.45.25.72.63.72h.11a.45.45,0,0,1,.45.44v1.7a.45.45,0,0,1-.45.44h-1c-1.47,0-2.16-.44-2.47-1.5a.37.37,0,0,0-.14-.22c-.19,0-.27.05-.33.19-.42,1.06-1.11,1.53-2.85,1.53H86.74a3.5,3.5,0,0,1-3.66-3.49V16c0-2.05,1.53-3.22,3.53-3.63l4-.86ZM89,0a2.8,2.8,0,1,1-2.79,2.8A2.8,2.8,0,0,1,89,0Zm-.5,17.48c1.89,0,2.11-1.05,2.11-2.8v-.91l-3.1.77A1.51,1.51,0,0,0,86.35,16v.28c0,.75.64,1.19,1.47,1.19ZM89,4A1.19,1.19,0,1,0,87.85,2.8,1.18,1.18,0,0,0,89,4Z"/><path class="cls-2" d="M105,6.43a.42.42,0,0,0,.42-.45V1.89a.42.42,0,0,1,.42-.45h2.41a.44.44,0,0,1,.44.45V16.24c0,3-2,4.1-6.18,4.1-3.74,0-5.46-1.36-5.46-4.1V10.39c0-2.57,1.86-4.1,5.16-4.1C103.41,6.29,104.16,6.43,105,6.43Zm-4.68,4.9v4.52c0,1.13.47,1.77,2.3,1.77h.45c1.88,0,2.35-.64,2.35-1.77V9.59c0-.34-1.16-.58-2.63-.58C100.67,9,100.36,9.67,100.36,11.33Z"/><path class="cls-2" d="M122.7,13.91a.42.42,0,0,1-.41.45h-7.37v.42c0,1.66,1.41,2.69,3.41,2.69h3.43a.43.43,0,0,1,.44.44v1.72a.43.43,0,0,1-.44.44h-4c-3.49,0-6.09-1.83-6.09-5.43V11.17c0-2.74,1.27-4.88,5.71-4.88,3.79,0,5.35,1.92,5.35,4.24Zm-7.78-2.27c0,.25.08.39.36.39h3.82a.42.42,0,0,0,.42-.45V11c0-1.24-.53-2.1-2.27-2.1-1.94,0-2.33.94-2.33,2.16Z"/><path class="cls-2" d="M126.65,9.35a.41.41,0,0,0-.41-.45h-1.39a.43.43,0,0,1-.44-.44V6.77a.45.45,0,0,1,.44-.45h1.39a.42.42,0,0,0,.42-.44V3.3a.41.41,0,0,1,.41-.44h2.41a.44.44,0,0,1,.44.44V5.88a.42.42,0,0,0,.42.44h2.35a.44.44,0,0,1,.45.44V8.46a.44.44,0,0,1-.45.44h-2.35a.42.42,0,0,0-.42.45v6c0,1.55.42,1.86,1.53,1.86h1.27a.42.42,0,0,1,.42.44V19.4a.4.4,0,0,1-.42.42h-3.13c-2.16,0-2.94-.92-2.94-3.19Z"/><path class="cls-2" d="M142.2,4.94c0-2.66,1.71-3.74,4.46-3.74h1.6a.4.4,0,0,1,.42.42V3.34a.42.42,0,0,1-.42.44h-1c-1.38,0-1.83.47-1.83,1.85v.25a.42.42,0,0,0,.42.45h2.21a.43.43,0,0,1,.45.44V8.46a.43.43,0,0,1-.45.44h-2.21a.42.42,0,0,0-.42.45v10a.44.44,0,0,1-.44.44h-2.41a.42.42,0,0,1-.42-.44v-10a.42.42,0,0,0-.42-.45h-1.39a.43.43,0,0,1-.44-.44V6.77a.44.44,0,0,1,.44-.44h1.39a.42.42,0,0,0,.42-.45Z"/><path class="cls-2" d="M150,10.15c0-2.33,1.44-4.1,5.76-4.1s5.74,1.77,5.73,4.1V16c0,2.35-1.46,4.1-5.73,4.1S150,18.35,150,16Zm3.27,5.32c0,1.27.44,2,2.49,2s2.47-.78,2.47-2V10.68c0-1.25-.47-2-2.47-2s-2.49.8-2.49,2Z"/><path class="cls-2" d="M165.22,9.35a.42.42,0,0,0-.41-.45h-.89a.43.43,0,0,1-.44-.44V6.77a.43.43,0,0,1,.45-.44h6.75a3.44,3.44,0,0,1,3.52,3.46v1.06a.44.44,0,0,1-.44.44h-2.13a.41.41,0,0,1-.42-.44v-.67c0-.83-.64-1.27-1.47-1.27h-.83a.42.42,0,0,0-.42.44V16.8a.42.42,0,0,0,.42.44h2.55a.43.43,0,0,1,.44.44v1.69a.44.44,0,0,1-.44.44h-7.54a.43.43,0,0,1-.44-.44V17.69a.44.44,0,0,1,.44-.45h.89a.41.41,0,0,0,.41-.44Z"/><path class="cls-2" d="M80.93,19.33a1.05,1.05,0,0,1,.13.41c0,.23-.13.34-.38.34H78c-.31,0-.47-.09-.7-.45L72.83,13a1.77,1.77,0,0,1-.39-1.16V9.93a.44.44,0,0,1,.45-.44h2.66A1.47,1.47,0,0,0,77,8V5.52A1.46,1.46,0,0,0,75.55,4H71.28a.42.42,0,0,0-.42.44V19.63a.44.44,0,0,1-.44.45H67.9a.42.42,0,0,1-.42-.45V4.47A.42.42,0,0,0,67.06,4h-.88a.45.45,0,0,1-.45-.45V1.89a.44.44,0,0,1,.45-.44h10.7A3.52,3.52,0,0,1,80.4,5V8.38a3.52,3.52,0,0,1-3.52,3.55h-1Z"/></g></g></svg>
