<svg id="svg" version="1.1" xmlns="http://www.w3.org/2000/svg" xmlns:xlink="http://www.w3.org/1999/xlink" width="400" height="209.1264667535854" viewBox="0, 0, 400,209.1264667535854"><g id="svgg"><path id="path0" d="M0.000 104.603 L 0.000 209.205 200.000 209.205 L 400.000 209.205 400.000 104.603 L 400.000 0.000 200.000 0.000 L 0.000 0.000 0.000 104.603 M129.084 79.292 C 130.376 80.212,130.358 81.778,129.040 83.044 L 128.219 83.833 129.058 83.945 C 131.227 84.236,131.799 85.359,131.799 89.324 C 131.799 91.952,131.835 92.227,132.228 92.582 C 132.538 92.863,132.639 93.175,132.594 93.713 C 132.508 94.732,130.882 94.947,130.050 94.049 C 129.446 93.397,129.342 93.392,128.717 93.979 C 127.525 95.099,124.314 94.629,123.434 93.206 C 121.966 90.830,123.662 88.627,127.327 88.151 C 130.449 87.746,129.314 85.867,126.046 86.031 C 123.732 86.148,123.640 86.118,123.640 85.249 C 123.640 84.271,124.034 83.975,125.550 83.817 C 127.042 83.661,127.453 83.415,126.803 83.068 C 125.604 82.426,125.460 80.938,126.481 79.745 C 127.346 78.734,128.114 78.601,129.084 79.292 M174.884 80.216 C 175.387 80.822,175.072 81.897,174.372 81.963 C 172.559 82.136,171.868 83.887,173.610 83.894 C 175.296 83.902,175.552 85.777,173.898 85.998 C 172.603 86.171,172.609 86.152,172.547 90.487 L 172.490 94.456 171.781 94.524 C 171.391 94.561,170.851 94.536,170.582 94.469 L 170.093 94.346 170.036 90.217 L 169.979 86.088 169.352 86.017 C 167.851 85.846,168.126 83.891,169.652 83.891 C 170.025 83.891,170.084 83.762,170.084 82.939 C 170.084 81.348,170.820 80.469,172.490 80.066 C 173.400 79.846,174.642 79.924,174.884 80.216 M119.725 80.599 C 122.263 82.264,121.337 88.285,118.542 88.285 C 117.683 88.285,117.840 88.710,119.790 91.650 C 121.837 94.736,121.869 94.979,120.235 94.979 C 118.832 94.979,118.791 94.944,116.875 92.108 C 114.937 89.240,114.644 88.687,114.644 87.894 C 114.644 86.722,114.783 86.611,116.236 86.611 C 118.055 86.611,118.410 86.258,118.410 84.454 C 118.410 82.454,118.246 82.322,115.760 82.322 L 113.703 82.322 113.647 88.267 C 113.586 94.834,113.600 94.770,112.255 94.770 C 110.848 94.770,110.879 94.912,110.879 88.351 L 110.879 82.435 110.350 82.302 C 109.447 82.075,109.068 80.774,109.780 80.343 C 110.454 79.936,119.051 80.157,119.725 80.599 M143.110 80.342 C 143.571 80.589,143.736 91.141,143.303 92.700 C 142.829 94.404,141.664 94.979,138.684 94.979 C 134.883 94.979,134.239 94.260,134.137 89.900 C 134.024 85.128,134.740 84.226,138.854 83.956 L 140.795 83.828 140.795 82.196 C 140.795 80.216,141.628 79.549,143.110 80.342 M127.531 80.608 C 126.907 81.064,127.165 81.904,127.929 81.904 C 128.629 81.904,128.913 81.204,128.442 80.637 C 128.134 80.265,128.005 80.261,127.531 80.608 M160.209 82.688 C 160.275 83.951,160.315 83.991,161.443 83.901 C 162.157 83.844,162.762 84.267,162.762 84.823 C 162.762 85.752,162.552 85.983,161.710 85.983 C 160.227 85.983,160.251 85.934,160.254 88.987 C 160.258 92.177,160.309 92.303,161.649 92.457 L 162.657 92.573 162.657 93.515 L 162.657 94.456 160.908 94.517 C 157.995 94.619,157.744 94.203,157.742 89.282 L 157.741 86.200 157.165 86.074 C 156.123 85.846,156.067 85.794,156.067 85.056 C 156.067 84.360,156.726 83.644,157.059 83.977 C 157.335 84.253,157.741 83.574,157.741 82.837 C 157.741 81.489,157.869 81.353,159.074 81.423 L 160.146 81.485 160.209 82.688 M183.619 84.252 C 185.142 85.042,185.251 85.374,185.251 89.226 C 185.251 93.966,184.673 94.665,180.753 94.665 C 176.775 94.665,176.096 93.819,176.190 88.982 C 176.260 85.330,176.371 84.989,177.720 84.252 C 178.946 83.581,182.327 83.582,183.619 84.252 M153.138 84.441 C 154.353 85.123,154.870 86.385,154.709 88.279 C 154.527 90.432,154.616 90.377,151.334 90.377 C 148.314 90.377,148.308 90.379,148.737 91.508 C 149.027 92.268,150.178 92.678,152.027 92.678 C 154.234 92.678,154.830 93.145,154.177 94.365 C 153.716 95.227,148.872 94.817,147.544 93.804 C 145.095 91.937,145.385 85.498,147.973 84.286 C 149.146 83.736,152.037 83.823,153.138 84.441 M193.372 84.194 C 194.829 84.714,195.893 86.703,195.176 87.567 C 194.808 88.010,193.305 87.888,193.065 87.395 C 192.967 87.194,192.807 86.865,192.708 86.663 C 192.404 86.038,191.435 85.815,191.088 86.290 C 190.755 86.745,190.666 91.523,190.981 92.020 C 191.080 92.177,191.593 92.334,192.121 92.369 C 193.566 92.467,194.211 93.755,193.110 94.344 C 192.584 94.626,187.751 94.626,187.225 94.344 C 186.474 93.942,186.675 92.717,187.552 92.351 L 188.285 92.045 188.285 89.212 L 188.285 86.380 187.552 86.074 C 186.703 85.720,186.481 84.528,187.186 84.117 C 187.736 83.797,192.421 83.855,193.372 84.194 M179.289 86.192 C 178.558 86.923,178.662 91.856,179.422 92.453 C 180.209 93.073,181.461 93.035,182.122 92.374 C 182.873 91.623,182.916 86.888,182.178 86.201 C 181.545 85.611,179.875 85.606,179.289 86.192 M149.582 86.132 C 148.688 86.460,148.321 87.272,148.663 88.163 C 148.933 88.867,152.092 88.500,152.092 87.764 C 152.092 86.596,150.729 85.710,149.582 86.132 M137.448 86.611 C 137.076 86.983,137.029 87.308,137.029 89.540 C 137.029 92.553,137.212 92.887,138.866 92.887 C 140.680 92.887,140.795 92.681,140.795 89.431 C 140.795 86.210,140.785 86.192,138.926 86.192 C 138.145 86.192,137.756 86.303,137.448 86.611 M127.741 90.241 C 125.574 90.749,125.293 92.678,127.386 92.678 C 128.671 92.678,129.348 92.002,129.247 90.822 C 129.173 89.963,129.080 89.927,127.741 90.241 M80.629 93.225 C 90.119 95.257,96.728 104.310,95.611 113.750 C 93.900 128.218,78.070 135.679,66.004 127.705 C 55.784 120.951,54.557 106.615,63.464 98.030 C 65.923 95.660,68.398 94.319,72.385 93.198 C 74.117 92.711,78.290 92.724,80.629 93.225 M75.523 95.569 C 75.523 96.299,75.222 96.591,74.372 96.687 C 73.280 96.810,73.419 98.613,74.528 98.705 C 75.799 98.810,75.833 99.565,74.619 100.728 C 71.686 103.539,75.129 107.730,78.383 105.310 C 79.983 104.119,79.775 101.727,77.969 100.562 C 77.113 100.011,77.220 98.882,78.138 98.779 C 78.977 98.684,79.289 98.392,79.289 97.699 C 79.289 97.006,78.977 96.714,78.138 96.619 C 77.598 96.558,77.496 96.445,77.406 95.816 C 77.255 94.761,75.523 94.534,75.523 95.569 M138.003 100.971 C 140.534 102.172,140.316 105.817,137.662 106.693 C 136.623 107.036,135.600 106.763,134.672 105.896 C 132.272 103.652,135.038 99.564,138.003 100.971 M314.922 100.913 C 316.390 101.526,317.183 103.124,316.728 104.549 C 315.927 107.056,313.069 107.609,311.424 105.576 C 309.525 103.229,312.136 99.749,314.922 100.913 M305.432 101.660 C 305.551 101.882,305.649 102.624,305.649 103.308 C 305.649 104.849,305.427 105.062,303.625 105.248 C 301.579 105.460,300.140 107.236,300.815 108.717 L 301.037 109.205 308.531 109.205 C 314.081 109.205,316.090 109.270,316.276 109.456 C 316.463 109.642,316.527 111.742,316.527 117.608 C 316.527 126.694,316.331 125.941,318.695 125.941 C 320.510 125.941,320.787 126.214,320.667 127.878 C 320.612 128.639,320.463 129.185,320.278 129.302 C 319.897 129.544,308.987 129.552,308.607 129.311 C 308.263 129.094,308.056 127.496,308.243 126.502 L 308.378 125.780 309.747 125.693 C 310.637 125.636,311.184 125.500,311.308 125.303 C 311.610 124.825,311.561 113.527,311.255 113.222 C 310.834 112.801,301.175 112.872,300.747 113.299 C 300.460 113.587,300.418 114.628,300.418 121.556 C 300.418 130.729,300.652 129.916,298.013 129.916 C 295.373 129.916,295.607 130.725,295.607 121.583 C 295.607 112.677,295.708 113.180,293.917 113.180 C 292.398 113.180,292.155 112.906,292.155 111.192 C 292.155 109.525,292.414 109.205,293.763 109.205 C 295.452 109.205,295.606 109.035,295.611 107.158 C 295.623 103.094,297.819 101.341,302.974 101.281 C 304.991 101.258,305.237 101.296,305.432 101.660 M77.516 102.308 C 78.378 103.260,76.900 104.738,75.948 103.876 C 75.714 103.664,75.523 103.229,75.523 102.907 C 75.523 101.909,76.806 101.523,77.516 102.308 M252.678 102.343 C 252.835 102.500,252.929 103.281,252.929 104.428 C 252.929 106.757,253.043 106.695,248.800 106.695 C 246.498 106.695,245.404 106.771,245.230 106.946 C 245.041 107.135,244.979 109.950,244.979 118.332 C 244.979 131.380,245.260 130.126,242.335 130.126 C 239.209 130.126,239.540 131.491,239.540 118.598 C 239.540 111.351,239.465 107.364,239.323 107.099 C 239.123 106.725,238.855 106.695,235.753 106.695 C 231.472 106.695,231.590 106.759,231.590 104.428 C 231.590 103.281,231.684 102.500,231.841 102.343 C 232.203 101.981,252.316 101.981,252.678 102.343 M126.164 102.727 C 126.509 102.912,126.569 103.176,126.569 104.519 C 126.569 107.072,126.951 106.904,121.138 106.904 L 116.141 106.904 115.497 107.445 C 114.895 107.952,114.854 108.079,114.854 109.400 C 114.854 111.198,114.826 111.172,118.515 112.881 C 120.112 113.622,123.877 115.475,125.209 116.176 C 128.614 117.970,129.572 124.820,126.840 127.844 C 125.120 129.748,123.945 129.961,115.630 129.877 C 108.197 129.802,108.795 130.011,108.790 127.484 C 108.786 125.201,108.349 125.349,115.327 125.274 L 121.330 125.209 121.910 124.629 C 122.441 124.096,122.490 123.916,122.490 122.460 C 122.490 120.355,122.224 120.137,116.550 117.594 C 109.894 114.611,109.396 114.103,109.245 110.155 C 109.072 105.631,110.359 103.318,113.389 102.706 C 114.588 102.464,125.707 102.482,126.164 102.727 M328.521 104.772 C 328.817 105.099,328.871 105.903,328.919 110.682 L 328.975 116.213 329.916 116.213 L 330.857 116.213 333.753 112.598 L 336.649 108.982 338.983 109.041 C 342.298 109.125,342.308 109.062,338.081 114.299 C 336.237 116.583,334.728 118.562,334.728 118.698 C 334.728 118.926,335.276 119.842,335.558 120.084 C 335.663 120.174,342.016 128.131,342.521 128.805 C 343.103 129.581,342.332 129.916,339.968 129.916 C 336.999 129.916,337.472 130.250,333.632 125.441 C 330.563 121.596,330.218 121.234,329.624 121.234 L 328.975 121.234 328.870 125.314 C 328.813 127.558,328.690 129.511,328.596 129.655 C 328.367 130.009,324.453 130.018,324.100 129.665 C 323.671 129.236,323.746 105.154,324.178 104.722 C 324.685 104.215,328.051 104.253,328.521 104.772 M151.527 104.864 C 151.839 105.096,151.886 105.756,151.933 110.669 L 151.987 116.213 152.957 116.276 L 153.926 116.339 156.639 112.928 C 160.075 108.607,159.551 108.969,162.266 109.041 C 165.128 109.116,165.285 109.573,163.225 111.838 C 161.721 113.491,157.950 118.441,157.950 118.762 C 157.950 119.080,160.032 121.801,162.723 125.001 C 166.527 129.523,166.546 129.916,162.971 129.916 C 161.144 129.916,160.396 129.733,159.937 129.174 C 159.822 129.034,158.282 127.120,156.514 124.920 C 152.055 119.371,151.883 119.385,151.883 125.294 C 151.883 128.220,151.810 129.487,151.632 129.665 C 151.319 129.978,148.047 130.005,147.476 129.700 C 146.875 129.378,146.838 105.178,147.437 104.828 C 147.968 104.519,151.100 104.547,151.527 104.864 M173.076 104.864 C 173.388 105.096,173.434 105.756,173.482 110.669 L 173.536 116.213 174.477 116.213 L 175.418 116.213 178.158 112.794 C 181.439 108.698,181.002 109.003,183.604 108.999 C 187.102 108.994,187.107 108.965,182.661 114.508 C 180.921 116.677,179.499 118.607,179.501 118.797 C 179.502 118.987,180.829 120.790,182.449 122.803 C 185.922 127.121,187.238 128.847,187.238 129.085 C 187.238 129.692,186.525 129.916,184.598 129.916 C 182.160 129.916,181.830 129.760,180.336 127.897 C 179.703 127.109,179.091 126.361,178.976 126.234 C 178.860 126.107,177.918 124.912,176.883 123.577 C 174.966 121.106,174.590 120.790,173.849 121.025 C 173.450 121.152,173.431 121.342,173.431 125.208 C 173.431 128.612,173.378 129.311,173.102 129.588 C 172.631 130.059,169.210 130.059,168.739 129.588 C 168.206 129.055,168.242 105.139,168.776 104.828 C 169.309 104.518,172.647 104.546,173.076 104.864 M71.862 106.879 C 71.107 107.073,70.322 107.469,69.817 107.909 C 69.482 108.201,69.339 108.199,68.335 107.882 C 65.892 107.112,63.761 107.828,62.596 109.810 C 61.107 112.343,62.406 116.238,66.014 120.063 L 67.415 121.548 76.489 121.548 L 85.564 121.548 86.433 120.764 C 89.098 118.359,91.203 114.660,91.210 112.367 C 91.222 108.753,87.760 106.500,84.408 107.943 C 83.817 108.197,83.708 108.168,82.770 107.507 C 81.286 106.461,79.074 106.461,77.444 107.507 L 76.341 108.215 75.880 107.794 C 74.933 106.932,73.194 106.536,71.862 106.879 M200.485 108.681 C 204.716 109.783,205.858 111.800,205.858 118.174 C 205.858 121.402,206.431 121.130,199.644 121.130 L 193.933 121.130 193.933 121.977 C 193.933 124.727,195.836 125.732,201.043 125.732 C 205.161 125.732,205.021 125.655,205.021 127.908 C 205.021 129.808,205.071 129.791,199.907 129.654 C 193.430 129.482,190.975 128.341,189.249 124.700 L 188.598 123.326 188.598 118.619 C 188.598 112.705,188.966 111.485,191.243 109.835 C 193.094 108.494,197.605 107.931,200.485 108.681 M81.124 108.997 C 83.390 110.378,82.317 113.605,78.150 117.939 C 76.735 119.412,76.539 119.378,74.553 117.312 C 70.827 113.437,69.973 110.751,72.012 109.322 C 74.088 107.869,76.632 110.903,74.895 112.762 C 74.092 113.621,74.082 113.571,75.316 114.921 C 76.566 116.288,76.760 116.277,77.981 114.760 C 79.040 113.445,79.031 113.523,78.243 112.625 C 76.502 110.643,78.891 107.635,81.124 108.997 M283.855 109.426 C 285.732 110.073,286.802 110.948,287.552 112.448 L 288.180 113.703 288.234 119.247 C 288.298 125.760,288.284 125.666,289.242 126.066 L 289.975 126.372 289.914 128.092 L 289.854 129.812 288.142 129.872 C 286.030 129.947,285.108 129.573,284.251 128.295 C 283.520 127.205,283.485 127.204,282.881 128.262 C 281.463 130.744,275.045 130.603,272.729 128.040 C 270.402 125.463,271.009 120.994,273.936 119.158 C 275.295 118.305,275.514 118.241,281.067 117.042 C 283.079 116.608,283.150 116.553,283.086 115.460 C 282.957 113.277,281.703 112.656,277.834 112.858 C 276.275 112.939,274.482 113.021,273.849 113.040 L 272.699 113.075 272.639 111.382 C 272.590 110.005,272.644 109.634,272.928 109.398 C 273.814 108.662,281.700 108.682,283.855 109.426 M139.357 109.551 C 139.585 109.825,139.666 111.521,139.749 117.762 L 139.854 125.628 141.521 125.690 C 143.490 125.763,143.507 125.781,143.511 127.765 C 143.516 129.786,143.764 129.707,137.397 129.707 C 131.013 129.707,131.337 129.827,131.423 127.506 L 131.485 125.837 132.733 125.773 C 134.625 125.676,134.519 126.057,134.519 119.348 C 134.519 112.817,134.599 113.180,133.157 113.180 C 132.098 113.180,131.799 112.742,131.799 111.192 C 131.799 109.210,131.809 109.205,135.763 109.205 C 138.583 109.205,139.112 109.256,139.357 109.551 M223.222 109.765 C 225.417 110.826,226.414 112.574,226.317 115.186 L 226.255 116.841 224.299 116.901 C 222.086 116.970,221.757 116.825,221.757 115.783 C 221.757 114.196,221.041 113.458,219.303 113.252 C 217.585 113.049,217.573 113.091,217.573 119.561 C 217.573 126.360,217.389 125.941,220.387 125.941 C 222.889 125.941,222.803 125.867,222.803 128.043 C 222.803 129.990,223.053 129.916,216.423 129.916 C 209.792 129.916,210.042 129.990,210.042 128.043 C 210.042 126.145,210.137 125.941,211.019 125.941 C 212.681 125.941,212.793 125.130,212.371 116.109 L 212.238 113.285 211.301 113.218 C 209.965 113.123,209.833 112.942,209.833 111.209 C 209.833 109.044,209.419 109.169,216.318 109.245 C 221.941 109.306,222.334 109.336,223.222 109.765 M266.527 109.748 C 268.708 110.764,269.715 112.521,269.621 115.151 L 269.561 116.841 267.604 116.901 C 265.299 116.973,265.063 116.847,265.063 115.544 C 265.063 114.287,264.289 113.487,262.865 113.273 C 261.126 113.013,261.200 112.748,261.137 119.453 C 261.071 126.494,260.850 125.941,263.735 125.941 C 266.252 125.941,266.216 125.912,266.210 127.953 C 266.204 130.015,266.523 129.916,259.898 129.916 C 253.079 129.916,253.347 129.993,253.347 128.043 C 253.347 126.145,253.442 125.941,254.325 125.941 C 255.918 125.941,255.858 126.179,255.858 119.881 C 255.858 113.318,255.830 113.180,254.510 113.180 C 253.341 113.180,253.138 112.863,253.138 111.039 C 253.138 109.071,252.781 109.170,259.623 109.245 C 265.160 109.305,265.653 109.341,266.527 109.748 M67.407 109.925 C 68.362 110.324,68.576 110.615,68.730 111.726 C 68.983 113.554,70.076 115.534,72.050 117.743 C 73.528 119.396,73.482 119.456,70.728 119.456 L 68.467 119.456 67.525 118.449 C 64.073 114.758,63.227 110.809,65.696 109.917 C 66.641 109.576,66.572 109.576,67.407 109.925 M88.432 110.588 C 89.819 112.096,88.733 115.303,85.801 118.362 L 84.752 119.456 82.451 119.456 C 79.596 119.456,79.598 119.460,81.397 117.333 C 83.016 115.421,84.198 113.207,84.421 111.670 C 84.701 109.741,87.066 109.103,88.432 110.588 M195.951 113.039 C 194.774 113.368,194.084 114.371,193.972 115.916 C 193.859 117.487,193.904 117.503,197.908 117.365 L 200.941 117.259 201.009 116.432 C 201.244 113.548,199.154 112.146,195.951 113.039 M280.858 120.841 C 277.416 121.841,277.248 121.920,276.812 122.737 C 275.688 124.849,277.190 126.354,279.982 125.912 C 282.332 125.539,283.223 124.260,283.020 121.548 C 282.937 120.441,282.605 120.333,280.858 120.841 M67.503 123.361 C 67.427 123.438,67.364 123.860,67.364 124.299 C 67.364 125.376,66.959 125.335,76.883 125.267 L 85.460 125.209 85.524 124.215 L 85.588 123.222 76.615 123.222 C 71.681 123.222,67.580 123.285,67.503 123.361 " stroke="none" fill="#fbfbfb" fill-rule="evenodd"></path><path id="path1" d="M126.703 79.561 C 125.451 80.742,125.547 82.408,126.903 83.025 C 127.888 83.474,127.291 83.880,125.628 83.891 C 124.060 83.902,123.849 84.041,123.849 85.066 C 123.849 85.919,123.979 86.097,124.535 86.006 C 125.348 85.873,128.082 85.994,128.427 86.179 C 129.633 86.824,129.141 87.958,127.564 88.167 C 123.394 88.720,121.529 91.644,123.979 93.788 C 125.117 94.783,128.870 94.759,128.870 93.757 C 128.870 93.288,129.546 93.337,129.980 93.838 C 131.313 95.370,133.481 94.227,132.238 92.647 C 131.898 92.214,131.830 91.702,131.767 89.115 C 131.670 85.060,130.936 83.922,128.395 83.880 L 127.720 83.869 128.243 83.516 C 130.172 82.214,130.525 80.703,129.177 79.520 C 128.230 78.688,127.618 78.698,126.703 79.561 M173.326 80.065 C 171.043 80.378,170.158 81.156,170.045 82.952 C 169.982 83.953,169.952 83.998,169.321 84.060 C 168.132 84.175,168.131 85.908,169.319 86.024 L 169.979 86.088 170.084 90.123 C 170.198 94.522,170.208 94.554,171.444 94.554 C 172.576 94.554,172.580 94.537,172.642 90.158 L 172.699 86.088 173.691 86.024 C 175.114 85.933,175.529 84.273,174.161 84.148 C 172.799 84.023,172.594 83.911,172.594 83.292 C 172.594 82.573,173.169 82.008,173.901 82.008 C 174.791 82.008,175.105 81.793,175.105 81.182 C 175.105 80.623,174.532 79.885,174.147 79.948 C 174.041 79.965,173.672 80.018,173.326 80.065 M109.628 81.119 C 109.632 81.797,109.724 81.946,110.308 82.218 L 110.983 82.531 111.088 88.598 L 111.192 94.665 111.968 94.730 C 113.644 94.869,113.585 95.094,113.647 88.331 L 113.703 82.322 115.665 82.262 C 118.228 82.183,118.410 82.326,118.410 84.414 C 118.410 86.320,118.181 86.564,116.314 86.652 L 114.958 86.715 114.894 87.838 C 114.831 88.935,114.868 89.016,116.542 91.499 C 118.772 94.806,118.938 94.980,119.859 94.976 C 121.891 94.968,121.892 94.978,119.525 91.407 C 117.504 88.357,117.511 88.381,118.654 88.199 C 119.273 88.100,119.729 87.844,120.224 87.320 L 120.921 86.581 120.921 84.386 C 120.921 80.422,120.809 80.352,114.487 80.342 L 109.623 80.335 109.628 81.119 M128.488 80.681 C 128.991 81.137,128.971 81.496,128.420 81.882 C 127.621 82.441,126.731 81.576,127.250 80.745 C 127.563 80.244,127.981 80.222,128.488 80.681 M141.004 81.813 C 141.004 84.021,140.927 84.099,138.748 84.106 C 135.207 84.118,134.273 85.108,134.134 89.004 C 133.956 93.937,134.979 95.134,139.197 94.938 C 143.222 94.750,143.304 94.584,143.305 86.559 L 143.305 80.335 142.155 80.335 L 141.004 80.335 141.004 81.813 M158.065 81.642 C 158.021 81.786,157.937 82.317,157.878 82.823 C 157.766 83.799,157.506 84.092,156.751 84.097 C 155.702 84.104,155.922 85.819,156.988 85.946 C 157.816 86.044,157.950 86.643,157.950 90.254 C 157.950 94.419,157.970 94.450,160.737 94.454 L 162.657 94.456 162.657 93.625 C 162.657 92.803,162.646 92.792,161.715 92.634 C 160.313 92.395,160.231 92.180,160.298 88.917 L 160.356 86.088 161.434 86.025 C 163.094 85.929,163.355 84.100,161.708 84.100 C 160.456 84.100,160.251 83.948,160.251 83.018 C 160.251 81.753,159.963 81.381,158.982 81.381 C 158.496 81.381,158.112 81.490,158.065 81.642 M179.094 83.912 C 176.580 84.345,176.073 85.360,176.185 89.738 C 176.289 93.814,177.052 94.630,180.753 94.630 C 184.589 94.630,185.251 93.835,185.251 89.226 C 185.251 84.345,183.810 83.101,179.094 83.912 M148.671 84.093 C 146.590 84.763,146.023 85.854,146.030 89.178 C 146.038 93.513,147.421 94.770,152.183 94.770 C 153.866 94.770,154.184 94.585,154.184 93.606 L 154.184 92.944 152.215 92.841 C 150.012 92.726,148.986 92.305,148.662 91.384 C 148.264 90.253,148.468 90.167,151.558 90.167 C 154.759 90.167,154.475 90.346,154.672 88.209 C 154.961 85.077,151.974 83.028,148.671 84.093 M186.898 84.656 C 186.726 85.340,187.013 85.831,187.677 85.988 C 188.177 86.105,188.180 86.126,188.238 89.187 L 188.296 92.268 187.660 92.395 C 186.971 92.533,186.674 93.144,186.920 93.918 C 187.134 94.592,193.201 94.592,193.415 93.918 C 193.732 92.919,193.379 92.469,192.281 92.469 C 190.822 92.469,190.774 92.351,190.841 88.988 L 190.900 86.088 191.465 86.023 C 192.268 85.930,192.831 86.299,192.990 87.021 C 193.151 87.757,194.306 88.129,194.899 87.637 C 195.518 87.123,195.158 85.581,194.232 84.781 L 193.445 84.100 190.241 84.100 L 187.037 84.100 186.898 84.656 M181.956 85.981 L 182.636 86.396 182.636 89.215 C 182.636 92.584,182.474 92.887,180.678 92.887 C 178.966 92.887,178.870 92.700,178.870 89.331 C 178.870 86.864,178.921 86.422,179.236 86.148 C 180.026 85.459,181.003 85.400,181.956 85.981 M151.579 86.497 C 152.852 87.770,152.161 88.570,149.887 88.453 L 148.640 88.389 148.576 87.617 C 148.447 86.068,150.416 85.334,151.579 86.497 M140.696 86.541 C 141.245 87.091,141.076 92.165,140.493 92.590 C 139.915 93.013,137.898 92.981,137.412 92.541 C 136.867 92.048,136.838 87.169,137.376 86.575 C 137.849 86.052,140.182 86.028,140.696 86.541 M129.289 90.778 C 129.289 92.544,127.745 93.499,126.406 92.561 C 125.401 91.857,125.974 90.680,127.524 90.264 C 129.193 89.816,129.289 89.844,129.289 90.778 M135.896 100.943 C 133.434 101.805,133.122 105.277,135.411 106.335 C 136.633 106.900,136.951 106.922,137.912 106.510 C 141.381 105.024,139.452 99.698,135.896 100.943 M312.946 100.921 C 310.260 101.864,310.101 105.376,312.693 106.523 C 314.295 107.231,316.126 106.309,316.676 104.517 C 317.352 102.315,315.116 100.160,312.946 100.921 M300.181 101.557 C 297.088 102.235,295.607 104.165,295.607 107.516 C 295.607 109.141,295.549 109.201,293.968 109.212 C 292.521 109.222,292.259 109.514,292.263 111.111 C 292.267 112.921,292.385 113.055,294.082 113.180 L 295.502 113.285 295.613 121.444 C 295.674 125.931,295.744 129.626,295.770 129.655 C 296.003 129.919,300.182 129.662,300.291 129.376 C 300.361 129.194,300.418 125.541,300.418 121.259 C 300.418 115.482,300.483 113.408,300.669 113.222 C 301.026 112.865,310.898 112.865,311.255 113.222 C 311.629 113.595,311.612 125.175,311.238 125.486 C 311.090 125.608,310.407 125.737,309.721 125.773 L 308.473 125.837 308.412 127.536 C 308.337 129.653,307.822 129.491,314.655 129.495 C 320.758 129.498,320.502 129.576,320.502 127.720 C 320.502 126.088,320.338 125.941,318.515 125.941 C 316.378 125.941,316.527 126.574,316.527 117.539 C 316.527 109.942,316.512 109.630,316.123 109.422 C 315.866 109.284,313.047 109.205,308.408 109.205 C 300.195 109.205,300.465 109.257,300.710 107.730 C 300.976 106.066,301.936 105.291,304.019 105.061 L 305.335 104.916 305.397 103.380 C 305.435 102.428,305.366 101.732,305.214 101.550 C 304.905 101.178,301.890 101.182,300.181 101.557 M231.956 102.318 C 231.650 102.496,231.590 102.841,231.590 104.409 C 231.590 106.766,231.548 106.743,235.811 106.671 C 240.010 106.600,239.526 105.089,239.590 118.486 L 239.644 129.812 242.048 129.871 C 245.304 129.952,244.978 131.244,244.982 118.213 C 244.984 112.166,245.063 107.095,245.158 106.946 C 245.285 106.745,246.220 106.664,248.784 106.632 C 253.014 106.580,252.929 106.627,252.929 104.383 C 252.929 101.881,253.904 102.091,242.297 102.098 C 235.912 102.102,232.190 102.182,231.956 102.318 M113.703 102.706 C 112.025 102.994,110.483 104.139,109.779 105.619 C 109.146 106.951,109.088 111.787,109.691 113.002 C 110.078 113.782,111.432 115.272,111.755 115.272 C 111.853 115.272,112.284 115.489,112.713 115.755 C 113.143 116.021,114.012 116.456,114.644 116.723 C 121.955 119.806,122.598 120.283,122.589 122.626 C 122.580 125.231,122.348 125.314,115.084 125.314 C 108.282 125.314,108.787 125.124,108.787 127.680 C 108.787 129.881,108.206 129.737,116.770 129.665 L 124.163 129.603 125.284 128.982 C 127.560 127.721,128.243 126.265,128.243 122.669 C 128.243 117.806,126.604 116.320,116.410 111.944 C 114.844 111.271,114.242 109.872,114.841 108.297 C 115.359 106.934,115.490 106.904,120.928 106.904 C 126.824 106.904,126.569 107.009,126.569 104.567 C 126.569 103.087,126.538 102.982,126.036 102.753 C 125.452 102.487,115.209 102.448,113.703 102.706 M326.056 104.560 C 325.141 104.594,324.270 104.723,324.121 104.847 C 323.771 105.137,323.718 128.862,324.066 129.512 C 324.258 129.870,324.520 129.916,326.372 129.916 C 328.984 129.916,328.870 130.139,328.870 125.009 C 328.870 121.708,328.916 121.157,329.201 121.048 C 329.589 120.899,330.544 121.103,330.544 121.336 C 330.544 121.545,335.794 128.111,336.777 129.132 L 337.533 129.916 339.670 129.916 C 343.421 129.916,343.432 129.977,338.597 123.954 C 336.473 121.308,334.734 118.967,334.732 118.753 C 334.729 118.456,339.113 112.678,339.754 112.134 C 340.209 111.748,341.423 109.916,341.423 109.616 C 341.423 109.094,341.011 108.996,338.822 108.996 C 336.666 108.996,336.622 109.017,335.353 110.669 C 334.955 111.187,334.534 111.719,334.417 111.850 C 334.301 111.982,333.452 113.044,332.531 114.211 C 330.844 116.350,330.371 116.687,329.393 116.441 L 328.870 116.310 328.870 110.810 C 328.870 104.069,329.041 104.449,326.056 104.560 M147.217 104.945 C 147.039 105.123,147.020 128.912,147.198 129.376 C 147.308 129.661,151.505 129.920,151.715 129.655 C 151.738 129.626,151.808 127.673,151.872 125.314 L 151.987 121.025 152.658 120.960 C 153.153 120.912,153.435 121.022,153.735 121.379 C 153.959 121.644,155.472 123.531,157.098 125.571 C 160.564 129.920,160.261 129.708,163.009 129.704 C 166.450 129.699,166.450 129.712,162.948 125.390 C 161.562 123.680,160.130 121.908,159.764 121.454 C 159.399 120.999,158.857 120.340,158.560 119.989 C 157.540 118.784,157.531 118.814,159.605 116.213 C 160.248 115.408,160.821 114.702,160.880 114.644 C 161.272 114.259,164.205 110.473,164.414 110.081 C 164.881 109.209,164.435 108.996,162.148 108.996 C 159.678 108.996,160.039 108.737,156.748 112.864 C 154.020 116.283,153.500 116.716,152.439 116.450 L 151.890 116.312 151.834 110.614 L 151.778 104.916 149.571 104.857 C 148.357 104.825,147.298 104.864,147.217 104.945 M168.627 105.216 C 168.485 105.481,168.410 109.637,168.410 117.259 C 168.410 124.882,168.485 129.037,168.627 129.302 C 168.892 129.799,172.847 129.924,173.157 129.446 C 173.250 129.302,173.373 127.348,173.431 125.105 L 173.536 121.025 174.167 120.963 C 174.760 120.905,175.010 121.167,178.222 125.203 C 182.037 129.995,181.676 129.748,184.728 129.664 C 187.500 129.587,187.577 129.418,185.860 127.179 C 184.563 125.488,182.450 122.836,182.106 122.468 C 181.213 121.513,179.499 119.038,179.503 118.709 C 179.506 118.487,180.966 116.492,182.746 114.275 C 186.866 109.146,186.889 108.996,183.540 108.996 C 181.454 108.996,180.984 109.209,179.927 110.637 C 176.148 115.743,175.126 116.736,173.954 116.441 L 173.431 116.310 173.431 110.812 C 173.431 106.815,173.362 105.245,173.180 105.063 C 172.717 104.600,168.887 104.729,168.627 105.216 M194.874 108.588 C 189.788 109.404,188.632 111.288,188.655 118.724 C 188.682 127.387,190.973 129.498,200.350 129.498 C 205.212 129.498,205.021 129.578,205.021 127.539 C 205.021 125.749,204.982 125.732,200.809 125.732 C 195.855 125.732,194.260 124.936,193.832 122.250 C 193.642 121.055,193.472 121.088,199.673 121.119 C 206.676 121.155,206.143 121.671,205.650 115.342 C 205.226 109.893,201.460 107.532,194.874 108.588 M275.853 109.003 C 272.572 109.185,272.528 109.218,272.634 111.440 C 272.725 113.352,272.650 113.304,275.054 112.972 C 277.726 112.603,280.703 112.594,281.381 112.954 C 283.363 114.005,284.008 116.522,282.375 116.832 C 282.001 116.904,281.318 117.047,280.858 117.151 C 280.397 117.256,279.315 117.492,278.452 117.676 C 275.293 118.352,274.206 118.788,273.087 119.827 C 270.781 121.969,270.913 126.725,273.330 128.626 C 275.885 130.636,281.756 130.327,282.944 128.121 C 283.156 127.728,283.385 127.407,283.453 127.409 C 283.735 127.416,284.053 127.756,284.330 128.347 C 284.938 129.648,288.930 130.589,289.733 129.621 C 290.183 129.079,289.933 126.515,289.405 126.252 C 288.247 125.677,288.285 125.884,288.282 120.110 C 288.277 109.919,286.589 108.410,275.853 109.003 M132.374 109.431 C 132.078 109.604,132.008 109.939,132.008 111.191 C 132.008 112.929,132.069 113.010,133.473 113.174 L 134.414 113.285 134.414 119.456 L 134.414 125.628 133.124 125.689 C 131.481 125.768,131.346 125.940,131.423 127.857 L 131.485 129.393 137.448 129.393 L 143.410 129.393 143.472 127.985 C 143.562 125.921,143.424 125.762,141.472 125.689 L 139.854 125.628 139.681 117.782 C 139.535 111.085,139.461 109.884,139.178 109.571 C 138.796 109.148,133.063 109.030,132.374 109.431 M210.196 109.569 C 209.120 110.757,209.909 113.180,211.371 113.180 C 212.490 113.180,212.539 113.455,212.559 119.906 C 212.579 126.139,212.622 125.932,211.287 125.938 C 210.250 125.943,210.042 126.245,210.042 127.744 C 210.042 129.887,209.458 129.707,216.423 129.707 C 223.387 129.707,222.803 129.887,222.803 127.744 C 222.803 126.006,222.710 125.941,220.188 125.941 C 217.355 125.941,217.573 126.461,217.573 119.714 C 217.573 113.211,217.580 113.180,218.927 113.180 C 220.762 113.180,221.757 113.961,221.757 115.401 C 221.757 116.728,222.093 116.946,224.136 116.946 C 226.221 116.946,226.360 116.834,226.360 115.163 C 226.360 112.655,225.210 110.723,223.179 109.816 C 221.583 109.104,210.802 108.899,210.196 109.569 M253.500 109.571 C 252.439 110.742,253.214 113.180,254.646 113.180 C 255.787 113.180,255.799 113.242,255.905 119.526 C 256.013 126.017,256.028 125.941,254.629 125.941 C 253.554 125.941,253.347 126.233,253.347 127.744 C 253.347 129.887,252.763 129.707,259.728 129.707 C 266.693 129.707,266.109 129.887,266.109 127.744 C 266.109 126.003,266.019 125.941,263.459 125.941 C 260.693 125.941,260.879 126.392,260.879 119.693 C 260.879 113.338,260.911 113.180,262.220 113.180 C 264.097 113.180,265.063 113.921,265.063 115.362 C 265.063 116.720,265.391 116.946,267.362 116.946 C 269.705 116.946,269.666 116.977,269.661 115.093 C 269.653 112.541,268.575 110.753,266.476 109.810 C 264.898 109.101,254.105 108.902,253.500 109.571 M199.403 113.058 C 200.915 113.690,201.866 116.305,200.926 117.244 C 200.589 117.582,195.054 117.749,194.264 117.446 C 193.717 117.236,193.815 115.092,194.411 114.205 C 195.301 112.882,197.676 112.336,199.403 113.058 M283.054 121.890 C 283.054 124.739,282.464 125.547,280.091 125.947 C 275.998 126.638,274.711 122.486,278.681 121.401 C 279.188 121.262,280.073 121.013,280.649 120.847 C 281.224 120.681,282.001 120.536,282.374 120.524 L 283.054 120.502 283.054 121.890 " stroke="none" fill="#0c0c0c" fill-rule="evenodd"></path><path id="path2" d="M112.198 80.282 C 113.441 80.319,115.418 80.319,116.591 80.281 C 117.764 80.244,116.747 80.214,114.331 80.214 C 111.914 80.214,110.954 80.245,112.198 80.282 M141.791 80.273 C 142.051 80.324,142.428 80.322,142.628 80.269 C 142.828 80.217,142.615 80.176,142.155 80.178 C 141.695 80.181,141.531 80.223,141.791 80.273 M140.865 82.008 C 140.865 82.871,140.902 83.224,140.947 82.793 C 140.993 82.361,140.993 81.655,140.947 81.224 C 140.902 80.792,140.865 81.145,140.865 82.008 M143.398 86.402 C 143.398 89.681,143.427 91.022,143.462 89.383 C 143.497 87.743,143.497 85.060,143.462 83.421 C 143.427 81.781,143.398 83.122,143.398 86.402 M157.793 82.531 C 157.796 82.992,157.839 83.155,157.889 82.895 C 157.939 82.635,157.937 82.258,157.884 82.058 C 157.832 81.858,157.791 82.071,157.793 82.531 M110.971 88.494 C 110.971 91.773,111.000 93.115,111.035 91.475 C 111.070 89.835,111.070 87.152,111.035 85.513 C 111.000 83.873,110.971 85.214,110.971 88.494 M120.994 84.310 C 120.994 85.288,121.030 85.688,121.074 85.199 C 121.118 84.710,121.118 83.910,121.074 83.421 C 121.030 82.931,120.994 83.332,120.994 84.310 M128.243 83.473 C 127.955 83.698,127.823 83.884,127.949 83.887 C 128.075 83.889,128.348 83.703,128.556 83.473 C 129.034 82.946,128.917 82.946,128.243 83.473 M138.651 84.043 C 139.025 84.089,139.637 84.089,140.010 84.043 C 140.384 83.996,140.078 83.958,139.331 83.958 C 138.583 83.958,138.277 83.996,138.651 84.043 M173.381 84.039 C 173.641 84.089,174.018 84.087,174.218 84.035 C 174.418 83.983,174.205 83.942,173.745 83.944 C 173.285 83.946,173.121 83.989,173.381 84.039 M188.764 84.047 C 189.545 84.087,190.769 84.087,191.484 84.046 C 192.198 84.005,191.559 83.972,190.063 83.972 C 188.567 83.973,187.982 84.006,188.764 84.047 M123.693 85.251 C 123.695 85.711,123.738 85.875,123.788 85.615 C 123.838 85.354,123.836 84.978,123.784 84.778 C 123.732 84.578,123.691 84.791,123.693 85.251 M180.387 85.709 C 180.588 85.762,180.918 85.762,181.119 85.709 C 181.321 85.656,181.156 85.613,180.753 85.613 C 180.350 85.613,180.186 85.656,180.387 85.709 M195.213 86.935 C 195.199 87.171,195.094 87.477,194.980 87.616 C 194.865 87.754,194.921 87.737,195.105 87.578 C 195.288 87.418,195.392 87.112,195.337 86.897 C 195.247 86.545,195.234 86.549,195.213 86.935 M140.875 89.226 C 140.875 90.607,140.909 91.144,140.950 90.421 C 140.991 89.697,140.991 88.567,140.949 87.910 C 140.908 87.253,140.874 87.845,140.875 89.226 M157.824 89.749 C 157.824 91.417,157.856 92.100,157.896 91.266 C 157.936 90.431,157.936 89.066,157.896 88.232 C 157.856 87.398,157.824 88.081,157.824 89.749 M114.701 87.866 C 114.701 88.384,114.742 88.596,114.792 88.337 C 114.842 88.078,114.842 87.654,114.792 87.395 C 114.742 87.137,114.701 87.348,114.701 87.866 M150.052 90.323 C 150.829 90.363,152.100 90.363,152.877 90.323 C 153.653 90.282,153.018 90.249,151.464 90.249 C 149.911 90.249,149.276 90.282,150.052 90.323 M161.297 92.550 C 161.297 92.595,161.620 92.670,162.015 92.716 C 162.409 92.762,162.686 92.725,162.630 92.634 C 162.529 92.470,161.297 92.393,161.297 92.550 M74.686 92.912 C 73.708 92.988,72.673 93.117,72.385 93.198 C 68.398 94.319,65.923 95.660,63.464 98.030 C 52.294 108.797,57.554 127.188,72.767 130.552 C 80.933 132.358,89.797 128.092,93.609 120.523 C 100.451 106.937,90.017 91.713,74.686 92.912 M127.040 92.822 C 127.241 92.875,127.571 92.875,127.772 92.822 C 127.973 92.769,127.809 92.726,127.406 92.726 C 127.003 92.726,126.838 92.769,127.040 92.822 M151.617 92.829 C 151.988 92.875,152.647 92.876,153.081 92.831 C 153.515 92.785,153.211 92.747,152.406 92.746 C 151.600 92.746,151.245 92.783,151.617 92.829 M188.755 94.507 C 189.532 94.547,190.803 94.547,191.579 94.507 C 192.356 94.466,191.721 94.433,190.167 94.433 C 188.614 94.433,187.979 94.466,188.755 94.507 M77.406 95.816 C 77.496 96.445,77.598 96.558,78.138 96.619 C 78.977 96.714,79.289 97.006,79.289 97.699 C 79.289 98.392,78.977 98.684,78.138 98.779 C 77.220 98.882,77.113 100.011,77.969 100.562 C 79.775 101.727,79.983 104.119,78.383 105.310 C 75.129 107.730,71.686 103.539,74.619 100.728 C 75.833 99.565,75.799 98.810,74.528 98.705 C 73.419 98.613,73.280 96.810,74.372 96.687 C 75.222 96.591,75.523 96.299,75.523 95.569 C 75.523 94.534,77.255 94.761,77.406 95.816 M75.889 102.109 C 75.390 102.399,75.423 103.402,75.948 103.876 C 76.900 104.738,78.378 103.260,77.516 102.308 C 77.100 101.848,76.470 101.771,75.889 102.109 M305.508 103.243 C 305.509 104.048,305.547 104.352,305.592 103.918 C 305.637 103.484,305.637 102.825,305.590 102.453 C 305.544 102.082,305.507 102.437,305.508 103.243 M325.267 104.547 C 325.759 104.591,326.512 104.590,326.941 104.545 C 327.369 104.500,326.967 104.464,326.046 104.465 C 325.126 104.466,324.775 104.503,325.267 104.547 M148.594 104.757 C 149.144 104.800,149.991 104.799,150.477 104.755 C 150.963 104.712,150.513 104.676,149.477 104.677 C 148.441 104.677,148.044 104.713,148.594 104.757 M169.927 104.756 C 170.473 104.799,171.368 104.799,171.914 104.756 C 172.461 104.713,172.014 104.678,170.921 104.678 C 169.827 104.678,169.380 104.713,169.927 104.756 M303.716 105.169 C 303.976 105.219,304.353 105.217,304.553 105.165 C 304.753 105.112,304.540 105.071,304.079 105.074 C 303.619 105.076,303.456 105.119,303.716 105.169 M74.984 107.151 C 75.223 107.274,75.626 107.563,75.880 107.794 L 76.341 108.215 77.444 107.507 C 79.074 106.461,81.286 106.461,82.770 107.507 C 83.708 108.168,83.817 108.197,84.408 107.943 C 87.760 106.500,91.222 108.753,91.210 112.367 C 91.203 114.660,89.098 118.359,86.433 120.764 L 85.564 121.548 76.489 121.548 L 67.415 121.548 66.014 120.063 C 62.406 116.238,61.107 112.343,62.596 109.810 C 63.761 107.828,65.892 107.112,68.335 107.882 C 69.339 108.199,69.482 108.201,69.817 107.909 C 71.100 106.789,73.574 106.427,74.984 107.151 M79.153 108.900 C 77.545 109.605,77.120 111.346,78.243 112.625 C 79.031 113.523,79.040 113.445,77.981 114.760 C 76.760 116.277,76.566 116.288,75.316 114.921 C 74.082 113.571,74.092 113.621,74.895 112.762 C 75.940 111.643,75.735 110.256,74.403 109.433 C 72.195 108.069,70.240 110.177,71.270 112.810 C 72.021 114.728,75.746 119.038,76.654 119.038 C 77.432 119.038,80.853 115.160,81.724 113.291 C 83.040 110.463,81.519 107.863,79.153 108.900 M114.704 109.519 C 114.706 110.094,114.746 110.305,114.794 109.987 C 114.843 109.669,114.841 109.198,114.792 108.941 C 114.742 108.683,114.703 108.944,114.704 109.519 M277.144 108.934 C 277.403 108.984,277.827 108.984,278.086 108.934 C 278.345 108.884,278.133 108.844,277.615 108.844 C 277.097 108.844,276.885 108.884,277.144 108.934 M280.076 108.935 C 280.336 108.985,280.712 108.983,280.912 108.930 C 281.112 108.878,280.900 108.837,280.439 108.839 C 279.979 108.842,279.815 108.885,280.076 108.935 M65.696 109.917 C 63.227 110.809,64.073 114.758,67.525 118.449 L 68.467 119.456 70.728 119.456 C 73.482 119.456,73.528 119.396,72.050 117.743 C 70.076 115.534,68.983 113.554,68.730 111.726 C 68.576 110.615,68.362 110.324,67.407 109.925 C 66.572 109.576,66.641 109.576,65.696 109.917 M85.961 109.922 C 84.861 110.249,84.581 110.566,84.421 111.670 C 84.198 113.207,83.016 115.421,81.397 117.333 C 79.598 119.460,79.596 119.456,82.451 119.456 L 84.752 119.456 85.801 118.362 C 89.948 114.036,90.049 108.709,85.961 109.922 M131.868 111.192 C 131.869 111.998,131.907 112.302,131.952 111.868 C 131.997 111.434,131.996 110.775,131.950 110.403 C 131.904 110.032,131.867 110.387,131.868 111.192 M139.623 113.285 C 139.624 115.010,139.656 115.689,139.695 114.792 C 139.735 113.895,139.734 112.483,139.695 111.654 C 139.655 110.825,139.623 111.559,139.623 113.285 M292.110 111.192 C 292.112 111.768,292.152 111.978,292.200 111.660 C 292.248 111.342,292.247 110.872,292.197 110.614 C 292.148 110.357,292.108 110.617,292.110 111.192 M278.609 112.700 C 278.868 112.750,279.291 112.750,279.550 112.700 C 279.809 112.650,279.597 112.609,279.079 112.609 C 278.562 112.609,278.350 112.650,278.609 112.700 M212.420 116.109 C 212.420 117.317,212.455 117.811,212.497 117.207 C 212.540 116.603,212.540 115.615,212.497 115.010 C 212.455 114.406,212.420 114.901,212.420 116.109 M260.970 119.665 C 260.970 122.829,261.000 124.124,261.035 122.542 C 261.071 120.960,261.071 118.371,261.035 116.789 C 261.000 115.207,260.970 116.501,260.970 119.665 M205.708 116.004 C 205.710 116.579,205.751 116.790,205.799 116.472 C 205.847 116.154,205.845 115.683,205.796 115.426 C 205.746 115.169,205.707 115.429,205.708 116.004 M201.099 116.213 C 201.101 116.674,201.144 116.837,201.194 116.577 C 201.244 116.317,201.242 115.940,201.190 115.740 C 201.137 115.540,201.096 115.753,201.099 116.213 M152.563 116.462 C 152.764 116.515,153.094 116.515,153.295 116.462 C 153.496 116.410,153.332 116.367,152.929 116.367 C 152.526 116.367,152.361 116.410,152.563 116.462 M174.111 116.462 C 174.312 116.515,174.642 116.515,174.843 116.462 C 175.044 116.410,174.880 116.367,174.477 116.367 C 174.074 116.367,173.910 116.410,174.111 116.462 M329.550 116.462 C 329.752 116.515,330.081 116.515,330.282 116.462 C 330.484 116.410,330.319 116.367,329.916 116.367 C 329.514 116.367,329.349 116.410,329.550 116.462 M196.496 117.519 C 197.272 117.559,198.543 117.559,199.320 117.519 C 200.097 117.479,199.461 117.446,197.908 117.446 C 196.355 117.446,195.719 117.479,196.496 117.519 M188.562 119.142 C 188.563 119.948,188.601 120.252,188.646 119.818 C 188.692 119.383,188.691 118.724,188.645 118.353 C 188.598 117.982,188.561 118.337,188.562 119.142 M255.923 124.163 C 255.924 124.854,255.963 125.111,256.009 124.735 C 256.056 124.359,256.055 123.794,256.007 123.480 C 255.959 123.165,255.921 123.473,255.923 124.163 M85.524 124.215 L 85.460 125.209 76.883 125.267 C 66.959 125.335,67.364 125.376,67.364 124.299 C 67.364 123.160,66.836 123.222,76.615 123.222 L 85.588 123.222 85.524 124.215 M276.408 124.059 C 276.408 124.461,276.451 124.626,276.504 124.425 C 276.557 124.223,276.557 123.894,276.504 123.692 C 276.451 123.491,276.408 123.656,276.408 124.059 M308.224 127.510 C 308.225 128.201,308.264 128.458,308.311 128.082 C 308.357 127.706,308.356 127.141,308.308 126.827 C 308.261 126.512,308.223 126.820,308.224 127.510 M320.565 127.615 C 320.565 128.248,320.604 128.507,320.652 128.190 C 320.700 127.874,320.700 127.356,320.652 127.040 C 320.604 126.723,320.565 126.982,320.565 127.615 M266.166 127.824 C 266.166 128.342,266.207 128.554,266.256 128.295 C 266.306 128.036,266.306 127.612,266.256 127.354 C 266.207 127.095,266.166 127.306,266.166 127.824 M134.676 129.654 C 136.200 129.690,138.695 129.690,140.220 129.654 C 141.744 129.619,140.497 129.589,137.448 129.589 C 134.399 129.589,133.151 129.619,134.676 129.654 M199.226 129.654 C 200.238 129.692,201.839 129.692,202.782 129.653 C 203.726 129.615,202.897 129.583,200.941 129.584 C 198.985 129.584,198.213 129.615,199.226 129.654 M112.932 129.864 C 114.809 129.898,117.821 129.898,119.626 129.864 C 121.431 129.829,119.895 129.800,116.213 129.800 C 112.531 129.801,111.055 129.829,112.932 129.864 M148.588 129.861 C 149.134 129.904,150.029 129.904,150.575 129.861 C 151.122 129.818,150.675 129.783,149.582 129.783 C 148.488 129.783,148.041 129.818,148.588 129.861 M161.872 129.861 C 162.476 129.904,163.465 129.904,164.069 129.861 C 164.673 129.819,164.179 129.785,162.971 129.785 C 161.763 129.785,161.268 129.819,161.872 129.861 M169.927 129.861 C 170.473 129.904,171.368 129.904,171.914 129.861 C 172.461 129.818,172.014 129.783,170.921 129.783 C 169.827 129.783,169.380 129.818,169.927 129.861 M183.421 129.861 C 184.025 129.904,185.013 129.904,185.617 129.861 C 186.221 129.819,185.727 129.785,184.519 129.785 C 183.311 129.785,182.816 129.819,183.421 129.861 M213.559 129.864 C 215.205 129.899,217.841 129.899,219.416 129.863 C 220.992 129.828,219.644 129.799,216.423 129.799 C 213.201 129.799,211.912 129.828,213.559 129.864 M256.851 129.864 C 258.491 129.899,261.174 129.899,262.814 129.864 C 264.453 129.828,263.112 129.799,259.833 129.799 C 256.553 129.799,255.212 129.828,256.851 129.864 M297.130 129.861 C 297.680 129.904,298.527 129.904,299.013 129.860 C 299.498 129.816,299.048 129.781,298.013 129.781 C 296.977 129.782,296.580 129.818,297.130 129.861 M241.161 130.071 C 241.765 130.113,242.754 130.113,243.358 130.071 C 243.962 130.028,243.468 129.994,242.259 129.994 C 241.051 129.994,240.557 130.028,241.161 130.071 " stroke="none" fill="#36fc09" fill-rule="evenodd"></path></g></svg>
